<svg xmlns="http://www.w3.org/2000/svg" width="1121.438" height="267.311" viewBox="0 0 1121.438 267.311"><path fill="#FFF" stroke="#000" stroke-width="5" stroke-miterlimit="10" d="M46.593 140.897v61.334H2.5V10.03h70.944c14.508 0 27.603 2.404 39.288 7.21 11.682 4.804 20.96 12.11 27.84 21.904 6.877 9.8 10.318 21.954 10.318 36.46 0 14.323-3.674 26.385-11.023 36.18-7.35 9.8-17.1 17.1-29.254 21.905-12.154 4.804-25.394 7.207-39.712 7.207H46.594zM72.03 45.645H46.594v59.92h26.004c9.42 0 17.1-2.587 23.036-7.772 5.936-5.18 8.996-12.198 9.186-21.057 0-10.175-2.876-17.9-8.622-23.177-5.75-5.274-13.806-7.915-24.167-7.915zM216.46 120.264v81.968h-44.374V65.43h22.612l12.437 19.503c6.594-5.088 14.225-9.654 22.895-13.708 8.665-4.05 16.486-6.077 23.46-6.077l8.76 35.33c-6.597 0-14.18 1.838-22.752 5.513-8.577 3.675-16.253 8.436-23.037 14.274zM406.965 132.418v13.284h-87.903c4.143 16.02 16.204 24.025 36.18 24.025 13 0 25.906-3.577 38.722-10.74l12.437 30.808c-6.407 4.712-14.273 8.48-23.6 11.306-9.328 2.827-19.552 4.24-30.668 4.24-25.063 0-44.8-6.31-59.215-18.937-14.415-12.622-21.623-30.146-21.623-52.573 0-14.698 3.012-27.558 9.045-38.582 6.027-11.023 14.458-19.502 25.296-25.438 10.833-5.936 23.22-8.904 37.168-8.904 13.943 0 25.72 3.207 35.33 9.61 9.61 6.408 16.82 14.98 21.624 25.72 4.805 10.743 7.207 22.805 7.207 36.182zm-88.468-11.87h46.354c-1.13-6.97-3.63-12.58-7.49-16.82-3.863-4.24-9.092-6.358-15.686-6.358-6.218 0-11.447 2.12-15.687 6.36s-6.74 9.848-7.49 16.817z"/><path fill="#FFF" d="M445.12 114.61c-6.6 0-12.155-2.26-16.677-6.782s-6.784-9.985-6.784-16.394c0-6.594 2.304-12.154 6.924-16.676 4.615-4.522 10.127-6.784 16.535-6.784 6.402 0 11.87 2.26 16.393 6.784 4.522 4.522 6.783 10.083 6.783 16.676 0 6.408-2.217 11.87-6.642 16.394-4.43 4.522-9.942 6.783-16.535 6.783zm0 87.622c-6.6 0-12.155-2.26-16.677-6.784-4.522-4.522-6.784-9.985-6.784-16.394 0-6.594 2.26-12.154 6.783-16.676 4.522-4.522 10.078-6.783 16.676-6.783 6.592 0 12.104 2.26 16.534 6.783 4.425 4.522 6.642 10.083 6.642 16.676 0 6.408-2.217 11.87-6.642 16.394-4.43 4.523-9.942 6.784-16.535 6.784z"/><path d="M445.12 204.732c-7.253 0-13.46-2.53-18.445-7.516-4.987-4.987-7.516-11.097-7.516-18.16 0-7.252 2.528-13.458 7.515-18.445 4.987-4.986 11.192-7.515 18.444-7.515 7.26 0 13.422 2.535 18.32 7.534 4.88 4.988 7.356 11.187 7.356 18.425 0 7.05-2.475 13.154-7.355 18.142-4.897 5-11.06 7.535-18.32 7.535zm0-46.637c-5.96 0-10.838 1.98-14.91 6.05-4.072 4.073-6.05 8.95-6.05 14.91 0 5.77 1.978 10.554 6.05 14.626 4.072 4.073 8.948 6.052 14.91 6.052 5.947 0 10.77-1.974 14.748-6.033 3.99-4.077 5.928-8.868 5.928-14.645 0-5.968-1.94-10.85-5.93-14.928-3.974-4.06-8.8-6.032-14.747-6.032zm0-40.984c-7.253 0-13.46-2.528-18.445-7.515s-7.516-11.097-7.516-18.16c0-7.266 2.582-13.478 7.675-18.464 5.077-4.973 11.23-7.496 18.284-7.496 7.063 0 13.173 2.53 18.16 7.516 4.987 4.987 7.516 11.193 7.516 18.444 0 7.05-2.475 13.154-7.355 18.142-4.897 5-11.06 7.535-18.32 7.535zm0-46.636c-5.782 0-10.62 1.985-14.787 6.07-4.155 4.067-6.174 8.937-6.174 14.89 0 5.77 1.978 10.554 6.05 14.626 4.07 4.072 8.948 6.05 14.91 6.05 5.947 0 10.77-1.972 14.748-6.032 3.99-4.076 5.928-8.867 5.928-14.644 0-5.96-1.98-10.836-6.05-14.91-4.073-4.07-8.857-6.05-14.627-6.05z"/><path stroke="#000" stroke-width="5" stroke-miterlimit="10" d="M488.08 190.078l12.718-34.483c6.028 3.206 13.52 6.174 22.47 8.903 8.95 2.733 16.91 4.098 23.885 4.098 9.42 0 16.676-1.647 21.764-4.946 5.088-3.294 7.632-7.676 7.632-13.143 0-3.577-1.936-6.876-5.795-9.893-3.864-3.012-10.13-7.066-18.796-12.154-1.887-.94-4.713-2.544-8.48-4.805-12.816-7.724-22.85-14.132-30.102-19.22-7.256-5.087-13.665-11.49-19.22-19.22-5.56-7.725-8.338-16.394-8.338-26.004.185-10.174 3.06-19.263 8.62-27.274 5.557-8.007 13.52-14.318 23.885-18.938 10.36-4.615 22.515-6.925 36.46-6.925 9.42 0 19.124 1.37 29.114 4.1 9.984 2.732 18.747 6.358 26.286 10.88L596.62 53.277c-9.046-3.767-16.492-6.404-22.33-7.914-5.843-1.506-12.154-2.26-18.938-2.26-6.974 0-12.675 1.46-17.1 4.38-4.43 2.923-6.643 6.925-6.643 12.012 0 4.147 1.836 7.773 5.51 10.882 3.675 3.11 9.563 6.833 17.667 11.165 3.012 1.32 6.12 3.017 9.328 5.088 13.567 7.914 23.928 14.37 31.09 19.36 7.16 4.996 13.47 11.307 18.94 18.94 5.462 7.63 8.195 16.35 8.195 26.144 0 10.555-2.968 19.975-8.903 28.265-5.936 8.294-14.512 14.795-25.72 19.503-11.214 4.708-24.45 7.066-39.713 7.066-8.86 0-19.36-1.603-31.515-4.805-12.16-3.2-21.628-6.875-28.41-11.022zM695.256 68.257h30.525l7.916 34.483h-38.44v45.79c0 6.407 1.6 11.587 4.805 15.545 3.203 3.957 7.633 5.936 13.285 5.936 5.84 0 11.682-1.505 17.524-4.52l12.72 30.808c-3.208 2.64-8.105 4.995-14.7 7.066-6.597 2.07-12.718 3.11-18.37 3.11-17.34 0-31.564-4.523-42.68-13.568-11.12-9.045-16.677-21.857-16.677-38.44V102.74h-19.786V68.257h19.786V33.49l44.093-6.783v41.55zM794.18 205.624l3.957-9.327-48.333-124.083 41.832-12.154 29.96 85.36 27.983-80.272h45.223l-60.77 154.043c-4.337 10.742-12.11 20.21-23.318 28.407-11.213 8.196-23.51 13.8-36.886 16.817l-14.98-35.048c9.795-4.147 17.71-8.01 23.74-11.59 6.03-3.58 9.894-7.63 11.59-12.152zM959.244 2.683v199.55H915.15V5.792l44.094-3.11zM1118.938 132.418v13.284h-87.904c4.143 16.02 16.204 24.025 36.18 24.025 13 0 25.906-3.577 38.723-10.74l12.437 30.808c-6.408 4.712-14.274 8.48-23.602 11.306-9.327 2.827-19.55 4.24-30.667 4.24-25.063 0-44.8-6.31-59.215-18.937-14.415-12.622-21.623-30.146-21.623-52.573 0-14.698 3.013-27.558 9.045-38.582 6.028-11.023 14.46-19.502 25.297-25.438 10.833-5.936 23.22-8.904 37.168-8.904 13.942 0 25.72 3.207 35.33 9.61 9.61 6.408 16.818 14.98 21.623 25.72 4.805 10.743 7.208 22.805 7.208 36.182zm-88.47-11.87h46.355c-1.13-6.97-3.63-12.58-7.49-16.82-3.864-4.24-9.093-6.358-15.687-6.358-6.22 0-11.447 2.12-15.688 6.36-4.24 4.24-6.74 9.848-7.49 16.817z"/></svg>
